<svg width="1024" height="1024" viewBox="0 0 1024 1024" fill="none" xmlns="http://www.w3.org/2000/svg">
<path d="M470 682.299C470 681.889 470.35 681.837 470.9 682.042C472.601 682.761 478.8 684.813 482.5 685.839C489.1 687.686 497.15 688.507 510.75 688.815C530.4 689.276 540.15 688.096 552.25 683.941C555.4 682.812 558 682.094 558 682.248C557.999 683.172 555.999 685.276 551.25 689.226C542.8 696.409 542.1 697.691 543.8 703.95C544.25 705.592 544.5 707.081 544.35 707.235C544.247 707.385 542.948 706.207 541.5 704.669C540.05 703.079 538.7 701.796 538.5 701.796C538.35 701.796 538.3 702.975 538.5 704.361C538.7 705.797 538.7 707.029 538.55 707.183C538.45 707.337 537.75 706.875 537.05 706.208C536.35 705.541 535 704.874 534.1 704.772C532.3 704.515 532.35 704.259 533.25 708.055C533.5 708.978 533.4 709.491 533.05 709.491C532.75 709.491 532.5 709.286 532.5 708.979C532.5 708.722 531.6 707.849 530.5 707.131C528 705.438 527.55 705.798 527.15 709.748C526.85 712.57 526.8 712.621 526.2 711.442C525.85 710.723 524.95 709.748 524.25 709.286L523 708.465L522.95 710.364C522.9 711.441 522.75 712.878 522.5 713.596L522.15 714.879L521.8 713.34C521.1 710.364 520.85 710.21 520.3 712.365C520 713.493 519.3 715.084 518.75 715.854C517.85 717.085 517.55 717.188 516.35 716.726C515.45 716.367 515 715.802 515 715.032C514.95 713.904 514.95 713.904 514.4 714.879C514.1 715.444 513.05 716.675 512.15 717.65C510.05 719.856 509.65 719.496 508.9 714.982C508.6 713.083 508.2 711.544 508 711.544C507.8 711.544 507.1 712.57 506.45 713.801C505.8 715.084 505.1 715.956 504.85 715.802C504.6 715.646 504.55 713.954 504.7 712.006C504.9 710.056 504.95 708.465 504.8 708.465C504.698 708.467 503.649 709.698 502.5 711.133L500.35 713.853L500.7 711.442C501 709.338 500.65 707.645 499.75 706.516C499.5 706.208 497.35 707.491 496.05 708.671L494.9 709.748L495.25 707.029L495.6 704.361H494C492.9 704.361 492.05 704.823 491 706.003C490.2 706.875 489.45 707.542 489.3 707.388C489.2 707.284 489.3 706.156 489.5 704.874C490.15 701.385 489.4 701.18 486.45 704.105C483.55 706.978 483.75 707.337 485 701.129C485.65 697.743 485 696.562 479.9 692.252C474.85 687.994 470 683.12 470 682.299Z" fill="black"/>
<path d="M490.15 581.79C490.95 581.688 490.45 583.175 489.25 584.304C488.55 584.971 488 585.843 488 586.305C488 586.869 488.4 586.715 489.4 585.74C491.3 583.894 493.449 582.56 493.85 582.97C494.05 583.124 493.9 583.586 493.6 583.894C493.25 584.253 493 584.612 493 584.766C493.001 585.176 497.3 585.022 498.3 584.612C498.7 584.458 499.15 584.663 499.3 585.073C499.6 585.792 505.65 589.742 509.85 591.948C514 594.103 518.25 593.078 524.95 588.46C526.6 587.28 528.3 586.356 528.75 586.356C529.15 586.356 529.65 585.997 529.85 585.535C530.05 585.022 530.55 584.868 531.45 585.022C533.05 585.381 534.25 584.663 533.85 583.585C533.25 582.047 535.3 582.714 537.7 584.868C540.3 587.228 540.6 587.023 538.75 584.15C537.6 582.457 537.55 582.251 538.35 582.251C540.6 582.303 547.55 586.356 550.9 589.64C553.2 591.897 553.55 591.692 552 589.024C551.451 588.102 551.001 587.231 551 587.126C551 586.357 555.3 589.332 559.15 592.718C561.599 594.872 563.698 596.616 563.8 596.617C564.1 596.617 563.75 596.001 561.9 593.128C559.151 589.024 561.8 590.769 568.05 597.182C571.4 600.568 574.2 603.287 574.3 603.133C574.399 603.03 573.8 601.85 573 600.517C571.65 598.362 571.6 598.208 572.55 598.721C573.45 599.183 579.8 604.775 583.05 607.905C586.2 610.983 587.55 611.497 585.55 608.88C585.05 608.213 584.25 606.878 583.75 605.904L582.9 604.159L584.6 605.186C585.5 605.75 587.85 607.084 589.75 608.161C593.95 610.47 596.05 611.958 598.9 614.78C600.05 615.908 600.999 616.626 601 616.32C601 615.807 597.7 611.548 596.8 610.881C596.5 610.676 596.4 610.419 596.55 610.265C596.95 609.854 600.85 611.804 606.5 615.241C614.15 619.859 618.75 624.733 621.95 631.659C624.6 637.252 625.5 641.101 625.45 646.077L625.4 649.206L624.3 645.615C622.45 639.664 619.9 635.662 621.5 641.254C622.2 643.614 623.5 653.208 623.5 656.081C623.5 657.98 623.4 658.236 622.75 657.672C622.35 657.313 622 656.749 621.95 656.441C621.95 656.133 621.5 654.953 621 653.824L620.05 651.772L620.3 656.903C620.5 659.724 620.8 662.546 621.05 663.213C621.7 664.906 621.6 665.368 620.75 665.009C620.3 664.855 618.85 662.29 617.45 659.263C613.9 651.516 612.8 649.463 612.35 649.463C612.15 649.464 612.3 650.131 612.7 650.951C613.8 653.055 614.55 656.747 613.9 656.543C613.6 656.441 612.5 654.851 611.45 653.055C609.001 648.747 606.352 644.9 605.9 644.846C605.7 644.846 605.9 645.666 606.3 646.641C607.4 649.36 607.15 649.463 605.55 646.898C603.95 644.281 597.55 637.457 597.1 637.919C596.95 638.074 597.45 638.895 598.25 639.715C599.05 640.587 599.5 641.254 599.3 641.254C598.199 641.253 589.05 635.148 586.5 632.686C584.801 631.096 583.351 629.968 583.2 630.12C583 630.274 583.75 631.506 584.75 632.788C585.8 634.071 586.5 635.252 586.35 635.406C585.897 635.916 580.149 632.532 577.8 630.377C575.25 628.12 574.55 627.863 575.75 629.761C576.2 630.479 576.45 631.198 576.35 631.352C575.998 631.709 568 624.322 565.8 621.552C563.35 618.474 562.55 619.038 564.45 622.578C565.3 624.169 565.65 625.349 565.3 625.349C564.999 625.348 562.399 622.937 559.5 619.962C556.65 617.038 554.2 614.677 554.1 614.831C554.001 614.935 554.501 616.064 555.25 617.397C556 618.679 556.5 619.859 556.35 620.013C555.949 620.423 548.25 616.267 546.4 614.677C542.1 610.88 539.6 610.214 543 613.805C544.199 615.087 544.949 616.113 544.65 616.114C543.7 616.114 540.35 614.523 537.45 612.728C534.15 610.676 533.8 610.624 534.25 612.112C534.55 613.035 534.45 613.138 533.7 612.779C532.05 612.06 530.85 612.317 526.45 614.472C520.2 617.499 517 618.32 512.65 618.064C509.45 617.858 508.25 617.448 502.55 614.574L496.1 611.342L494.25 612.471C491.95 613.856 491.8 613.805 492.75 612.318C493.95 610.471 492.65 609.906 491.35 611.701C490.5 612.933 486.45 615.395 483.15 616.678L481.95 617.14L482.95 615.755C483.5 614.934 484.5 613.651 485.1 612.779C486.4 611.086 485.7 611.394 482.7 613.857C479.15 616.781 470.501 621.706 470.5 620.834C470.5 620.629 471.3 619.244 472.3 617.756C473.3 616.217 473.95 614.883 473.8 614.729C473.65 614.575 472.25 615.909 470.65 617.704C465.201 623.707 463.4 625.349 462.15 625.349H460.95L462.5 623.04C463.349 621.759 463.849 620.733 463.65 620.732C463.2 620.732 459.75 623.963 454.55 629.094C451.9 631.762 451.5 632.019 452.2 630.634C453.4 628.223 453.2 628.017 451.4 629.813C450 631.198 442.45 636.123 441.75 636.123C441.1 636.123 441.7 634.995 443.5 632.738C444.599 631.404 445.349 630.173 445.25 630.07C445.15 629.916 443.05 631.455 440.65 633.507C438.25 635.508 434.75 637.971 432.9 638.946C431.05 639.972 429.2 641.152 428.75 641.614C427.3 643.101 427.3 641.767 428.75 640.228C429.55 639.356 429.95 638.689 429.65 638.689C428.75 638.689 423.651 644.64 422.2 647.41C421.451 648.795 420.651 649.975 420.4 649.976C419.85 649.976 419.85 649.976 420.75 647.41C421.15 646.179 421.4 645.102 421.3 644.999C420.999 644.642 418.049 649.72 416.85 652.593C415.6 655.722 414.15 658.031 413.75 657.57C413.6 657.416 413.7 656.184 414.05 654.902C414.35 653.568 414.5 652.388 414.35 652.234C414.199 652.082 412.849 654.544 411.35 657.775C409.9 660.956 408.15 664.035 407.5 664.599L406.35 665.624L406.75 662.803C407.45 657.467 407.8 653.003 407.5 652.541C407.35 652.285 406.8 653.209 406.35 654.594C405.2 657.929 404.3 657.98 404.7 654.697C404.85 653.363 405.1 650.387 405.3 648.027C405.45 645.667 405.9 642.588 406.25 641.202C406.6 639.817 406.7 638.689 406.5 638.689C406 638.689 404.25 643.306 403.45 646.743C402.5 650.797 401.95 650.541 402.25 646.128C403 636.175 407.9 625.862 414.65 620.27C419 616.678 427.05 611.65 429.95 610.727C431 610.419 430.9 610.625 429.1 612.882C427.95 614.267 427.001 615.6 427 615.806C427 616.011 428.25 615.139 429.75 613.857C431.25 612.625 435.05 610.163 438.15 608.418C441.2 606.674 444.05 604.878 444.4 604.416C444.95 603.698 445 603.698 445 604.519C445 605.032 444.2 606.571 443.2 607.956C440.35 611.958 442.3 610.932 447.25 605.853C451.499 601.492 455.999 597.645 456 598.464C456 598.669 455.3 599.953 454.5 601.338C452.4 604.878 453.9 603.903 458.55 598.773C462.15 594.822 467.499 590.41 467.5 591.384C467.5 591.641 466.95 592.718 466.25 593.744C465.55 594.771 465 595.746 465 595.9C465.001 596.463 467.401 594.77 469.75 592.513C473.1 589.332 474.999 587.896 475.85 587.896C476.4 587.896 476.3 588.254 475.5 589.486C474 591.589 474.45 591.744 476.5 589.897C479.9 586.87 484.5 583.945 488.25 582.406C489.1 582.098 489.9 581.79 490.15 581.79Z" fill="black"/>
<path d="M534 619.193C537.05 618.474 538.3 618.628 543.85 620.475C549.599 622.424 558.55 626.785 563.05 629.761C567.6 632.839 577.45 638.689 580.7 640.28C584.4 642.024 587.75 642.999 593.35 643.82C598.25 644.538 599.5 645.512 598.55 647.77C597.8 649.617 594.6 651.669 590.75 652.849C585.9 654.285 581.15 653.978 568.25 651.362C553 648.283 554 648.386 546.4 648.386C541.4 648.386 537.35 648.796 530.25 649.976C518.35 651.874 512.45 651.977 500.25 650.233C480.05 647.36 478.65 647.359 461.15 651.207C449.05 653.875 444.4 654.389 440.3 653.619C434.6 652.542 430 649.617 430 647.052C430 645.513 430.8 645.153 438.2 643.563C444.65 642.177 448.4 640.69 453.5 637.509C473.1 625.298 476.75 623.246 484 620.732C490.8 618.372 492.9 618.576 503.35 622.989C514.45 627.657 515.2 627.607 528.75 621.296C530.65 620.373 533.05 619.449 534 619.193Z" fill="black"/>
<path fill-rule="evenodd" clip-rule="evenodd" d="M519.5 0.692605C527.65 -0.230889 541.349 -0.230848 548.1 0.692605C559.05 2.18048 571.95 6.54151 582.5 12.3391C587.35 15.007 592.2 18.0346 593.3 19.0608C593.6 19.4199 595.15 20.5996 596.7 21.677C598.2 22.8057 599.4 23.8322 599.25 23.9348C599.149 24.037 597.2 23.1136 594.9 21.8313C588 17.9833 579 14.9048 567.75 12.4934C563.85 11.6725 553.001 10.8003 553.5 11.3645C553.65 11.4671 556.45 12.3399 559.7 13.2121C571.65 16.4958 585.55 22.4465 600.5 30.758C610.5 36.2991 615.6 38.0443 627.5 39.9426C633.25 40.8661 641.3 42.8152 647.85 44.8674C661.849 49.1771 672.45 55.6931 682.5 66.0569C688.2 71.9571 696.1 82.0136 700.65 89.1965C703.2 93.2496 709.4 99.9194 713.35 102.947C715.25 104.383 719.7 107.359 723.25 109.616C731.8 114.952 732.9 115.722 738.5 120.493C749.65 129.934 758.5 141.016 763.35 151.688C765.3 155.946 768.7 165.644 768.35 165.951C768.295 166.046 766.597 163.638 764.65 160.615C759.15 152.253 753.3 146.096 745.55 140.503C743.4 138.964 743.95 139.888 747.3 143.531C752.5 149.174 758.85 158.819 763.4 168.003C768.7 178.777 770 182.728 771.75 193.092C773.25 202.071 773.5 202.635 780.9 214.384C786.7 223.568 792.3 234.086 794.4 239.781C796.35 245.066 798.5 257.79 798.45 263.639V266.974L797.05 261.329C796.25 258.2 794.8 253.942 793.75 251.838C791.75 247.734 787.8 242.038 786.35 241.114C785.5 240.551 785.5 240.602 786.3 242.448C790.35 252.299 794 268.256 796.3 286.213C797.3 294.371 797.05 310.071 795.8 316.228C795.05 319.871 792.1 329.823 791.8 329.823C791.75 329.81 791.751 326.737 791.9 323C792.1 316.998 791.5 308.635 790.7 306.48C790 304.633 789.65 306.121 789.35 311.816C788.85 320.64 787.75 327.618 784.95 339.008C781.7 352.142 781.45 353.271 781.25 359.119C781.05 364.455 779.45 376.718 778.25 382.259C776.9 388.518 771.4 406.014 769 411.657C768.4 413.043 767.5 415.403 767 416.891L766.1 419.508L768 420.893C769.05 421.662 770.25 422.638 770.7 423.151C771.45 424.023 771.3 424.023 767.5 423.818C760.9 423.407 759 424.587 753.25 432.694C752.45 433.822 750.85 435.771 749.7 437.054C747.6 439.363 747.6 439.363 746.85 445.777C746.4 449.317 745.95 453.678 745.8 455.525L745.55 458.86L746.55 457.577C747.1 456.859 749.8 453.165 752.6 449.368C761 437.927 763.35 435.515 767.15 434.438C769.5 433.822 772.65 434.797 774.4 436.696C777.45 440.031 778.75 447.008 778.35 458.193C778.15 465.016 777.9 466.966 776.35 472.969C774.35 480.819 767.6 501.752 766.85 502.572C766.75 502.621 766.8 501.083 766.9 499.135C767.35 491.182 765.3 473.122 762.95 464.246C761.75 459.732 759.401 453.476 758.9 453.473C758.15 453.473 755.75 456.551 751.65 462.964C749.301 466.606 747 470.197 746.5 470.916C746.05 471.635 745.3 472.918 744.85 473.79C744.05 475.329 744.1 475.432 745.35 476.612C747.4 478.51 751.25 484.872 752.95 489.079C755.55 495.493 756.55 504.676 755.45 512.115C754.15 521.197 752.95 523.147 743.85 531.048C741.6 533.049 740.85 534.126 739.8 536.999C739.05 538.949 737.75 541.257 736.9 542.181C735.1 544.079 732.05 545.824 730.55 545.824C730 545.825 729.4 546.029 729.25 546.337C728.6 547.415 723.25 573.324 722.7 578.198C722.05 584.099 724.85 586.818 731.75 586.972C733.8 586.972 735.499 587.074 735.5 587.177C735.5 587.228 733.8 587.896 731.75 588.665C728.35 589.948 727.55 590.05 723.25 589.845L718.5 589.588L718.05 591.436C717.75 592.462 716.75 596.515 715.75 600.465C714.7 604.415 713.7 608.468 713.5 609.444C711.45 619.14 705.5 640.33 702.1 649.976C697.6 662.751 694.45 669.729 688.4 680.093L685.65 684.814L685.35 695.485C685.15 701.334 684.85 711.698 684.7 718.522L684.35 730.886L686.05 732.169C687 732.836 691 735.863 695 738.89C706.9 747.766 714.05 756.078 728.25 777.473C739.75 794.814 746.1 804.306 749.5 809.282C751.6 812.361 755.45 818.159 758.1 822.11C760.7 826.06 765.1 832.575 767.8 836.577C770.5 840.579 775.35 847.712 778.5 852.432C781.65 857.152 786.85 864.745 790 869.363C793.15 873.98 797.75 880.702 800.2 884.293C802.65 887.885 807 894.195 809.8 898.299C812.6 902.404 816 907.381 817.3 909.382C818.65 911.332 823.15 917.899 827.25 923.902C838.5 940.217 840.35 942.936 842.3 945.758C843.25 947.143 844.7 949.246 845.55 950.375C846.35 951.504 847.6 953.249 848.25 954.224C848.9 955.199 850.35 957.302 851.45 958.841C853.8 962.176 860.85 972.437 863.85 976.85C864.999 978.593 866.099 980.132 866.3 980.338C866.9 980.851 865.05 977.671 858.05 966.332C854.4 960.381 850.55 953.916 849.45 951.966C847.8 948.939 838.25 932.674 835.45 928.057C835 927.338 832.75 923.644 830.45 919.848C828.1 916.052 825.701 912.101 825.15 911.126C820.8 903.789 819.2 901.018 818.9 900.3C818.75 899.838 817.55 897.837 816.3 895.785C815.05 893.785 814 892.04 814 891.886C813.998 891.627 810.249 885.42 806.65 879.727C805.451 877.829 804.5 876.136 804.5 875.93C804.5 875.622 801.65 870.646 798.75 865.977C798.15 865.002 797 863.052 796.2 861.718C795.4 860.384 793.95 857.972 792.95 856.33C791.95 854.74 790.3 851.918 789.25 850.072C788.25 848.225 786.85 845.915 786.25 844.941C785.2 843.299 782.999 839.554 775.6 827.24C772.2 821.545 771.3 820.108 768.05 814.926C765.6 811.078 765 809.539 765.9 809.539C766.1 809.54 766.5 809.745 766.8 810.001C767.25 810.463 776.85 814.105 795.5 820.826C800.3 822.571 807.2 825.137 810.75 826.573C814.35 828.01 820.5 830.37 824.5 831.858C833.2 835.141 847.55 840.58 850 841.555C850.95 841.965 854.55 843.402 858 844.736C861.45 846.07 866.15 847.865 868.5 848.788C870.85 849.712 875.9 851.662 879.75 853.15C883.6 854.638 890.95 857.562 896.15 859.665C901.3 861.717 905.599 863.411 905.75 863.411C905.9 863.411 908.5 864.437 911.6 865.668C914.7 866.9 919.95 869.003 923.25 870.337C926.55 871.671 937.15 875.981 946.75 879.932C956.4 883.934 966.4 888.038 969 889.115C992.55 898.607 1011.2 907.227 1021.9 913.537L1024 914.821V1024L703.75 1023.95L709.75 1021.23C721.1 1016.1 727.65 1012.35 729.65 1009.94C732.65 1006.25 735.15 998.809 738.7 982.955L740.85 973.463L743.65 973.566C745.2 973.617 748.55 974.028 751.05 974.49C753.6 974.9 758.15 975.618 761.2 976.029C764.25 976.49 768.4 977.055 770.4 977.312C777.25 978.287 781.3 978.799 793.25 980.338C799.85 981.21 807.6 982.288 810.5 982.698C813.4 983.16 821.7 984.289 829 985.264C836.3 986.239 847.5 987.727 853.95 988.599C860.35 989.471 865.85 990.086 866.2 989.984C866.499 989.881 864.599 989.265 862 988.65C856.5 987.316 826.75 979.672 815.75 976.747C795.4 971.309 769.2 964.69 758.1 962.176C739.95 958.123 738.6 957.814 734.7 957.455C731.451 957.199 731.1 957.25 730.85 958.122C730.7 958.687 729.75 963.459 728.75 968.846C725.25 987.367 722.35 996.602 718.95 1000.45C716.2 1003.48 711.4 1006.25 699.5 1011.84C694.95 1013.94 690.15 1016.25 688.75 1016.97C687.4 1017.69 684 1019.33 681.25 1020.67C678.5 1022.05 676.2 1023.33 676.1 1023.59C675.975 1023.8 656.335 1024 632.4 1024C591.152 1024 588.9 1023.95 589.25 1023.13C590.15 1020.72 600.6 1003.27 608.75 990.651C613.75 982.904 619.099 974.593 620.6 972.181C623.95 966.845 628.5 960.432 635.75 950.684C638.8 946.631 642.55 941.499 644.15 939.191C645.75 936.933 648.65 933.137 650.6 930.674C658.15 921.08 663.15 911.28 670.1 892.143C673.8 882.036 678.75 864.951 681 854.433C681.6 851.611 682.4 847.814 682.8 845.967C683.2 844.12 684.05 839.451 684.75 835.552C686.2 827.086 686.1 825.957 682.75 810.104C680.2 797.842 679.5 793.429 677.9 779.781C676.8 770.239 676.75 768.135 676.75 734.273C676.75 707.7 676.6 698.925 676.2 699.384C675.85 699.743 672.5 703.899 668.75 708.722C664.95 713.493 660.25 719.394 658.3 721.702C656.35 724.062 654.1 726.833 653.25 727.86C648.9 733.349 638.6 745.406 636.8 747.151C635.7 748.228 635.05 748.946 635.4 748.792C635.7 748.587 636 748.485 636 748.587C636 748.69 632.85 752.025 629 756.027C625.151 759.977 622.001 763.414 622 763.569C622 763.979 625.95 762.44 628.35 761.055C629.899 760.183 630.5 760.029 630.5 760.541C630.5 761.465 625.35 764.954 622.25 766.134C620.85 766.698 618.8 767.776 617.65 768.597C614.251 770.957 607.75 777.882 606.55 780.397C604.9 783.937 601.3 787.067 595.45 790.043C589 793.327 584.85 796.149 582.25 798.919C581.15 800.099 579.8 801.432 579.25 801.843C578.15 802.664 578.15 802.715 580.8 798.56C582.4 795.995 580.5 796.918 575.95 800.868C571.95 804.306 564.95 809.027 563.8 809.027C563.601 809.026 564.251 808 565.2 806.769C566.2 805.589 567 804.409 567 804.203C567 804.05 565.25 804.819 563.15 805.948C555.1 810.206 545.85 814.67 545.6 814.413C545.451 814.259 546.251 813.13 547.4 811.95C548.55 810.72 549.499 809.591 549.5 809.437C549.5 809.232 548.2 809.899 546.65 810.873C545.101 811.848 543.651 812.617 543.45 812.617C543.25 812.617 542.45 812.875 541.65 813.234C539.7 814.055 535.8 815.132 535.55 814.875C535.45 814.772 536 813.848 536.75 812.823C538.45 810.565 538.4 810.566 532 813.336C529.65 814.362 527.3 815.183 526.75 815.183C525.85 815.132 525.9 815.029 527.15 813.901C527.9 813.183 528.349 812.618 528.15 812.617C527.95 812.617 525.5 812.977 522.75 813.387C514.4 814.618 506.6 814.208 501.35 812.156C499.7 811.489 499.65 811.899 501.1 813.49C501.7 814.156 502.05 814.824 501.85 814.978C501.698 815.131 499.198 814.361 496.3 813.182C493.45 812.002 490.95 811.078 490.8 811.078C490.15 811.079 490.55 812.361 491.6 813.49C492.199 814.156 492.549 814.771 492.4 814.926C491.95 815.439 484.85 812.566 481.45 810.514C479.65 809.385 478 808.513 477.8 808.513C477.601 808.514 478.351 809.591 479.45 810.976C480.55 812.31 481.3 813.439 481.05 813.541C480.848 813.591 477.599 812.207 473.95 810.361C465.351 806.154 460.601 803.896 460.2 803.896C460.05 803.896 461.05 804.973 462.45 806.256C463.9 807.59 464.95 808.77 464.8 808.872C464.349 809.333 457.15 804.613 452.75 800.971C447.25 796.405 445.5 795.892 448.3 799.637C450.4 802.459 448.5 801.638 445.25 798.252C443.6 796.559 442.05 795.173 441.75 795.173C441.5 795.173 439.9 794.352 438.25 793.326C436.6 792.3 433.25 790.402 430.85 789.17C427.1 787.169 426.05 786.348 423.85 783.424C422.4 781.577 420.9 779.371 420.5 778.55C420.1 777.729 417.75 775.112 415.3 772.752C411.85 769.469 409.75 767.981 406.25 766.237C401.75 763.979 397.2 760.952 397.65 760.49C397.801 760.337 399.5 760.901 401.5 761.773C403.5 762.645 405.449 763.363 405.8 763.364C406.2 763.364 403.65 760.388 400.15 756.796C392.2 748.587 389 745.098 389 744.483C389 744.175 386.8 741.353 384.1 738.172C381.4 734.94 376.85 729.348 374 725.654C371.1 722.011 367.6 717.752 366.2 716.161C364.8 714.622 363 712.365 362.15 711.185C361.3 710.005 360.551 709.133 360.4 709.236C360.3 709.339 360.35 711.237 360.55 713.443C361.3 721.447 362.15 744.996 362.15 760.029C362.2 784.553 361.25 795.123 356.9 816.466C355.55 823.238 354.3 829.6 354.15 830.626C353.2 837.296 364.3 873.98 374 895.99C374.5 897.119 375.95 900.454 377.25 903.43C378.5 906.406 380.25 910.203 381.1 911.896C384.1 917.95 392.05 929.494 399.3 938.319C414.35 956.686 426.95 973.361 436.7 987.829C442.599 996.549 459.99 1023.37 460 1023.74C460 1023.9 443.25 1024 422.8 1024C391.153 1024 385.351 1023.9 384.15 1023.23C383.4 1022.82 381.05 1021.9 379 1021.18C370.25 1018 352.45 1010.45 346.85 1007.53C341.8 1004.86 340 1003.58 336.5 999.886C334.15 997.372 333.5 996.295 332.15 992.139C330.15 986.239 329.1 981.929 326.5 969.103C325.401 963.616 324.401 959.102 324.35 958.995C323.749 958.38 288.55 965.767 253.25 973.925C245.3 975.772 226.25 980.082 217.75 981.981C212.55 983.109 204.3 985.008 199.5 986.085C194.7 987.214 187.6 988.804 183.75 989.676C179.95 990.497 176.65 991.318 176.5 991.524C176.151 991.934 178.504 991.677 202.5 988.906C213.65 987.573 229.05 985.828 236.75 985.007C244.45 984.135 253.75 983.109 257.45 982.698C266.8 981.672 295.8 977.979 304.75 976.747C308.9 976.132 312.7 975.618 313.25 975.567C314.1 975.515 314.45 976.439 316.1 982.904C318.6 992.652 321.7 1001.78 324.15 1006.71C327.25 1012.97 329.9 1014.97 343 1020.97C346.15 1022.41 348.85 1023.69 348.95 1023.8C348.994 1023.9 270.565 1024 174.6 1024H0L0.25 913.999L5.5 911.126C19.4 903.635 38.0001 895.478 72.75 881.728C78.8 879.316 86.1 876.391 89 875.211C93.5999 873.313 97.7002 871.723 114 865.515C118.45 863.822 128.75 859.82 134 857.768C138.45 856.023 156.5 849.404 160.75 847.916C162.4 847.352 166.8 845.762 170.5 844.325C174.2 842.94 180.4 840.631 184.25 839.195C188.1 837.809 193.05 836.014 195.25 835.193C197.45 834.423 203.1 832.371 207.75 830.678C212.45 828.985 219.05 826.522 222.5 825.29C228.8 822.93 239.15 819.185 250.25 815.183C253.55 814.003 260.55 811.489 265.75 809.539C272.9 806.923 275.3 806.204 275.4 806.769C275.5 807.128 275.3 807.744 275 808.103C274.7 808.462 273.15 811.079 271.55 813.901C269.95 816.723 265.65 824.213 262 830.574C253.3 845.71 254.1 844.376 250.3 851.046C248.5 854.227 247 856.946 247 857.049C247 857.152 246.3 858.434 245.45 859.922C243.15 863.873 243.1 863.925 231.25 884.96C225.3 895.529 219.8 905.328 219 906.765C217.15 910.202 199.3 942.011 196 947.81C194.55 950.324 192.7 953.71 191.85 955.249C191.05 956.788 190.05 958.431 189.7 958.893C189.3 959.303 189 959.867 189 960.073C189 960.227 187.75 962.485 186.25 964.998C183.1 970.386 178.05 980.082 179.25 978.594C179.7 978.029 182.35 973.976 185.15 969.615C187.951 965.254 203.8 940.884 220.3 915.488C253.65 864.181 275.4 830.677 282.75 819.031C285.45 814.772 288.9 809.385 290.4 806.974C291.95 804.563 293.9 801.432 294.8 800.047C308.85 777.575 318.95 762.03 322.75 756.95C328.25 749.665 340.35 738.583 349.85 732.067C353 729.912 352.85 731.656 351.7 710.518L350.95 695.896L349.4 693.073C348.55 691.534 346.7 688.405 345.25 686.148C337.4 673.834 329.45 658.185 325.9 647.924C323.95 642.28 319.25 625.195 314.95 608.007C312.55 598.362 310.45 590.255 310.3 590.05C310.149 589.794 308.699 589.845 307 590.153C303.55 590.717 299.75 590.101 295.4 588.254L292.75 587.126L296.4 586.818C299.25 586.51 300.5 586.151 302.5 584.817C303.85 583.893 305.4 582.611 305.9 581.841C306.85 580.559 306.85 580.456 305.9 575.89C305.4 573.325 304.4 568.809 303.75 565.833C303.05 562.857 301.95 557.675 301.25 554.289C299.75 547.107 299.3 545.824 298.25 545.824C297 545.824 293.851 543.977 292.4 542.387C291.15 541.002 288.5 536.178 288.5 535.203C288.499 534.638 285.699 531.919 282.35 529.2C281 528.072 279.35 526.584 278.7 525.865C277.1 524.121 274.65 519.042 273.75 515.553C272.2 509.704 273.3 496.415 275.8 489.9C277.15 486.308 281.4 479.536 283.3 477.843L285.05 476.304L280.95 468.864C278.7 464.76 276.15 460.245 275.3 458.86C273.6 456.089 270.6 452.447 270 452.447C269.3 452.447 267.55 457.372 266.25 463.016C263.3 475.74 262.5 481.691 262.1 493.491L261.75 502.984L257.85 490.773C251.1 469.634 249.55 461.784 250.2 451.318C250.6 443.981 251.25 441.159 253.05 438.594C255.25 435.516 257.25 434.386 260.15 434.643C264.3 435.002 267.5 438.184 277.95 452.139C279.999 454.856 281.697 457.06 281.8 457.064C281.85 457.064 281.8 452.856 281.65 447.726L281.35 438.337L279.95 436.901C279.15 436.131 277.65 434.386 276.65 433.052C272.85 428.281 271.3 426.742 268.35 425.254C264.65 423.356 260.45 423.15 257.15 424.74C255.951 425.253 255.001 425.561 255 425.357C255 424.895 258.55 421.816 260.55 420.431L261.85 419.559L259.75 413.556C258.6 410.272 256.85 405.45 255.85 402.936C253.1 395.599 250.6 387.492 249.25 381.335C247.7 374.05 245.1 358.094 244.7 352.861C244.5 350.654 244.2 348.807 244.05 348.807C243.85 348.808 243.2 350.142 242.65 351.732L241.6 354.707L241.85 344.959C242.15 334.39 241.6 327.156 240 321.256C239.5 319.358 238.5 314.74 237.8 311.097C234.55 293.756 234.9 283.34 239.25 270.309C240.45 266.769 241.3 263.793 241.2 263.69C241.1 263.587 240.95 263.587 240.85 263.69C240.799 263.793 239.9 264.921 238.95 266.203C232.8 274.104 228.9 284.623 226.95 298.527C226.35 302.528 226.3 302.734 225.9 301.092C225.1 297.449 225.3 283.134 226.2 277.747C228.7 263.33 234.501 251.12 245.4 237.319L248.15 233.829L243.95 229.365C238.35 223.465 237.05 221.67 234.35 216.18C231.55 210.434 229.85 204.892 228.75 197.966C227.55 190.835 227.95 180.471 229.7 172.826C231.65 164.207 231.95 163.95 231.95 171.031C232.05 182.472 235.9 193.913 242.4 201.865C245.1 205.098 248.85 208.586 249.2 208.176C249.299 208.071 248.299 205.558 247 202.584C242.45 192.272 240.7 183.087 241.15 171.338C241.7 155.125 247.5 134.961 255.7 120.339C258.55 115.312 264.048 107.002 264.35 107.308C264.45 107.411 263.85 109.001 263.05 110.848C258.65 120.699 256.45 130.345 256.15 140.76C255.9 148.969 256.55 154.766 258.45 160.769L259.4 163.848L259.45 157.331C259.5 147.634 261.25 139.733 265.1 131.37C267.05 127.112 273.35 118.031 277.05 114.08C278.7 112.336 279.2 111.155 280.5 106.384C287.05 82.3727 298.5 65.9035 316.15 55.1291C321.8 51.6403 330.45 47.8947 335.75 46.5608C341.25 45.2268 341.35 45.3293 336.65 47.6379C331.201 50.3058 327.6 52.7174 322.45 57.1809C314.7 63.902 309.6 70.5726 306.1 78.5764L304.65 81.8088L309.8 76.5754C313.6 72.6762 316.85 70.008 322.1 66.468C326.049 63.8003 330.05 61.2352 331 60.7219C331.95 60.2088 336.25 56.2061 340.5 51.7424C344.75 47.3301 350.15 42.1997 352.5 40.4553C373.8 24.1912 399.7 13.314 428 8.79905C436.05 7.51639 458.3 7.51639 466.2 8.79905C469.25 9.31211 471.75 9.77456 471.85 9.87718C471.949 9.92849 468.8 10.1842 464.9 10.3381C453.25 10.7999 439.95 13.2634 430.5 16.6496C421.45 19.8819 417.95 21.9855 422.75 21.3186C424.05 21.1134 429 20.7021 433.7 20.4455C448.45 19.5733 455.1 18.9063 460 17.7776C462.6 17.2132 471.85 14.2382 480.55 11.2112C502.8 3.36127 507.85 1.97527 519.5 0.692605ZM513.25 411.965C504.9 412.068 504.85 412.069 499.3 413.505C491.45 415.557 489.25 417.815 488.45 424.587C488.2 426.793 487.75 430.641 487.45 433.206C486.7 439.517 483.1 453.781 480.05 462.554C472.95 482.769 462.6 500.829 452.45 510.628C440.85 521.915 429.9 526.122 406 528.636C395.8 529.713 375 529.458 366 528.175C353.45 526.328 344.3 523.813 336.2 519.863C325 514.475 314.2 500.418 308.8 484.205C306.85 478.254 303.75 465.324 302.5 457.833C301.85 454.088 301.25 447.572 301.05 442.954L300.75 434.745L299.2 434.592L297.6 434.438L297.7 439.209C297.7 441.826 297.45 448.24 297.1 453.473C296.15 466.299 296.95 486.052 298.8 497.031C299.8 503.137 302.3 514.681 304.05 521.71C305.65 527.97 307.55 535.717 311.05 550.544C311.3 551.591 311.549 552.597 311.786 553.535L311.207 553.333C314.144 580.605 321.412 619.88 334.305 653.551C344.981 676.658 356.66 691.947 368.551 711.058C374.243 718.951 380.622 726.977 387.388 733.972C387.91 734.512 388.819 734.314 389.07 733.606L389.922 730.549C392.241 724.001 393.806 717.224 394.599 710.348C394.833 709.718 395.044 709.117 395.2 708.619C396.1 705.746 397.7 703.335 398.25 703.95C398.45 704.104 398 705.285 397.3 706.568C396 708.825 395.4 711.083 394.5 717.188C394.2 719.034 393.9 720.778 393.75 721.138C393.65 721.497 393.85 721.652 394.3 721.447C394.95 721.19 395 721.498 394.75 722.986C394.55 723.96 394.55 725.55 394.75 726.474C395.1 728.064 395.15 728.116 395.8 727.193C396.2 726.68 396.5 725.191 396.5 723.908C396.5 721.087 396.95 719.24 397.6 719.24C397.9 719.24 398.05 720.728 398 722.677C397.85 727.91 397.95 729.501 398.45 729.501C398.7 729.501 399.05 728.783 399.25 727.962C399.45 727.09 399.75 726.525 400 726.679C400.75 727.141 401.1 724.935 400.75 721.652C400.4 718.163 401.15 715.289 403 712.519C404.75 710.005 405.1 710.877 403.45 713.648C402.6 715.033 402 716.315 402.15 716.469C402.25 716.623 402.9 715.905 403.5 714.879C404.1 713.853 405.15 712.672 405.8 712.262C406.4 711.8 407 710.979 407.1 710.364C407.2 709.645 407.65 709.184 408.4 709.081C409 708.979 409.5 708.671 409.5 708.414C409.5 708.106 409.3 708.055 409 708.209C408.75 708.363 408.5 708.209 408.5 707.85C408.5 707.491 409.85 706.413 411.5 705.541C414.95 703.643 415.4 704.053 412.5 706.464C411.4 707.388 410.5 708.312 410.5 708.517C410.5 708.927 409.85 709.697 404.5 715.546C402.45 717.803 401.2 719.65 401.35 720.061C401.5 720.471 401.75 720.779 401.95 720.728C402.101 720.727 403.501 719.188 405 717.342C409 712.468 411.9 709.543 414.7 707.645L416.15 706.67L415.3 708.107C414.8 708.876 414.2 709.491 413.95 709.491C413.7 709.491 413.5 709.697 413.5 710.005C413.501 710.672 415.3 710.671 416.6 709.953C417.149 709.646 417.699 709.543 417.85 709.646C417.95 709.8 416.15 710.877 413.8 712.057C409.5 714.212 406.85 716.623 405.25 719.701C404.25 721.702 404.6 721.703 407 719.753C408.95 718.163 412.448 716.419 412.85 716.828C412.95 716.982 412 718.009 410.7 719.189C407.55 722.011 406.85 723.139 407.4 724.165C407.8 724.883 408.05 724.678 409 723.139C410.1 721.24 415.35 716.829 415.85 717.342C415.949 717.497 414.799 719.035 413.25 720.728C410.05 724.371 409.35 725.859 409.8 728.322C410.2 730.476 410.7 730.014 411.45 726.679C412.05 724.165 414.4 719.753 415.15 719.753C415.7 719.753 415.6 720.01 413.9 723.344C413.051 725.037 412.501 726.576 412.7 726.781C412.9 726.987 413.2 726.884 413.4 726.576C413.952 725.652 420.001 722.319 421.15 722.319C421.95 722.319 421.7 722.678 419.95 723.858C412.951 728.732 412.65 728.988 412.3 730.681C412 732.015 412.05 732.118 413.1 731.81C414.5 731.348 417.5 729.091 417.5 728.475C417.501 727.551 423.101 724.833 424.65 724.987L426.25 725.14L424.7 726.012C422.4 727.295 420 730.014 418.9 732.477C418.351 733.707 418 734.836 418.1 734.94C418.35 735.145 421.65 733.862 427.35 731.348C429.05 730.63 430.6 730.014 430.7 730.014C431.45 730.014 430.15 731.707 428.9 732.374C428.1 732.785 427.6 733.349 427.75 733.606C427.9 733.811 427 735.248 425.75 736.736C423.8 739.096 422.75 741.25 423.9 740.686C424.351 740.429 426.9 739.249 428.25 738.685C432.2 736.94 436 736.171 436 737.095C435.998 737.352 434.599 738.121 432.9 738.787C429.8 740.019 425.5 743.764 425.5 745.252C425.5 746.33 426.4 746.073 431.35 743.303C436.949 740.225 439.8 739.916 435.45 742.892C433.25 744.431 432.75 744.996 432.75 746.227C432.7 747.048 432.55 748.279 432.3 748.997C432.05 749.87 432.05 750.126 432.4 749.767C432.65 749.458 433.15 748.382 433.5 747.305C434.4 744.329 434.7 745.406 433.8 748.535C432.85 751.768 432.85 751.563 433.65 751.563C435.001 751.562 438.799 745.869 438.3 744.637C438.2 744.278 438.4 743.662 438.85 743.251C440.2 742.123 439.4 747.202 437.95 748.792C437.35 749.459 436.95 750.126 437.1 750.281C437.25 750.434 438.8 748.895 440.55 746.894C443.85 743.046 444.95 742.892 442.85 746.586C441.45 748.998 440 753.667 440 755.616C440 756.796 440.15 756.745 441.3 754.744C442.9 752.025 443.45 752.281 442.3 755.205C441.85 756.385 441.6 757.464 441.75 757.617C442.05 757.976 442 758.078 443.75 754.128C445.2 750.948 448.599 746.433 449.6 746.432C449.85 746.432 449.35 747.304 448.55 748.33C446.35 751.203 442.851 758.642 443.25 759.669C443.5 760.285 444 759.567 445.2 756.95C446.1 754.95 447.9 751.666 449.2 749.614C452.7 744.124 452.8 744.791 449.45 751.307C447.75 754.59 446.55 758.233 447.15 758.233C447.301 758.231 447.951 757.257 448.65 756.027C450.05 753.616 451.849 751.718 452.3 752.23C452.45 752.384 452.1 753.307 451.45 754.231C450.4 755.667 450.2 756.642 450.1 761.003C449.95 764.595 450.05 765.929 450.45 765.724C450.75 765.519 451 764.748 451 763.979C451 763.209 451.25 762.235 451.55 761.824C451.95 761.26 452 761.517 451.8 762.851C451.65 763.979 451.7 764.338 451.95 763.876C452.2 763.465 452.5 761.773 452.7 760.183C453.15 755.976 454.7 752.025 456.75 750.024C458.9 747.869 458.95 748.433 456.95 752.23C455.7 754.641 455.45 755.565 455.6 758.079C455.75 761.003 455.75 761.003 456.45 759.618C457.4 757.72 458.05 757.874 457.45 759.874C457 761.516 456.8 766.801 457.2 766.391C457.3 766.288 457.65 764.287 458 761.978C458.4 758.746 458.95 757.104 460.25 754.847C461.9 752.076 462.65 751.717 461.5 754.282C461 755.308 461.05 755.308 461.85 754.18C464.5 750.64 468.45 746.587 468.7 747.202C468.8 747.561 468.6 748.023 468.25 748.177C466.7 748.742 463.601 755.153 464.85 755.155C465.05 755.155 466 753.872 466.95 752.281C467.85 750.742 468.65 749.511 468.7 749.614C468.8 749.718 468.65 751.256 468.45 753.102C468.25 754.949 467.95 757.823 467.75 759.516L467.45 762.594L468.6 759.259C469.75 755.976 471.65 752.282 473.25 750.281C474.05 749.254 474.05 749.255 473.75 750.537C473.25 752.744 472.85 756.95 473.15 756.642C473.351 756.486 474.151 754.639 475 752.537C476.7 748.33 480.3 741.815 480.95 741.815C481.2 741.815 481.15 742.892 480.9 744.226C479.851 749.765 479.2 755.151 479.6 755.155C479.799 755.155 480 754.949 480 754.744C480 754.539 480.7 753.564 481.5 752.589L483.05 750.793L482.3 752.435C481.85 753.307 481.4 755.411 481.2 757.053L480.9 760.029L481.9 758.54C482.45 757.719 483.05 756.283 483.25 755.36C483.4 754.385 483.8 753.616 484.05 753.615C484.35 753.615 484.45 754.231 484.3 755C484.05 756.386 483.8 765.467 483.95 767.827C483.95 768.494 484.2 769.007 484.5 769.007C484.75 769.007 484.9 766.493 484.85 762.697C484.75 756.694 484.8 756.334 486.2 753.461C487 751.871 487.75 750.64 487.85 750.742C487.95 750.845 487.7 752.333 487.3 754.026C486.5 757.155 486.3 761.208 486.8 763.209C487.3 765.107 488 764.544 488 762.184C488.05 761.004 488.35 759.31 488.75 758.49L489.4 756.95L489.45 759.413C489.5 762.491 490.2 762.132 491.1 758.592L491.75 755.924L492 761.157C492.15 764.03 492.45 766.544 492.65 766.749C493.55 767.673 494.05 765.416 494 760.798C493.9 749.459 495 745.304 495.6 754.847C495.75 757.823 496.15 760.644 496.45 761.157C497.1 762.286 497.1 762.337 497 755.257C496.95 751.614 497.1 750.024 497.45 750.281C497.75 750.435 498 751.614 498 752.897C498 754.128 498.25 755.154 498.5 755.155C498.8 755.155 499 756.129 499.05 757.309C499.1 760.49 499.4 759.156 499.75 753.975C499.95 751.513 500.25 749.614 500.5 749.767C500.7 749.869 501 751.615 501.2 753.615C501.4 755.565 501.75 757.309 502 757.463C502.65 757.874 503.1 754.025 502.75 751.203C502.5 749.305 502.55 748.947 503 749.614C503.3 750.127 503.85 752.795 504.2 755.514L504.9 760.541L504.95 756.437C505 753.666 505.3 751.665 505.95 750.229C507.4 746.997 508 746.945 508 750.024C508 753.974 508.85 752.64 509.25 748.125C509.45 745.919 509.9 743.56 510.25 742.841L510.9 741.558L511.2 742.841C511.3 743.56 511.7 745.971 512 748.177C512.85 754.128 513.3 754.949 513.7 751.563C514.25 747.099 515 746.638 515 750.742C515 752.691 515.15 754.178 515.3 753.975C515.8 753.462 516.95 747.356 517 745.047C517 743.867 517.25 742.738 517.5 742.584C517.8 742.431 517.999 742.328 518 742.43C518.1 743.661 520.5 754.793 520.7 755C520.85 755.205 521 754.436 521 753.308C521 748.947 522.45 747.202 522.55 751.409C522.6 752.795 522.75 755.155 522.95 756.694L523.3 759.516L523.9 756.694C524.7 753.103 526.4 750.025 527.05 751.101C527.3 751.511 527.5 753.103 527.5 754.642C527.5 758.284 528.2 759.567 529 757.463C529.35 756.591 529.85 754.59 530.15 752.948C530.5 751.359 530.899 750.026 531.1 750.024C531.75 750.024 531.55 754.744 530.75 757.412C530.35 758.798 530 760.645 530 761.517C530.05 762.953 530.1 763.004 530.7 762.184C531.75 760.747 532.6 755.667 532.4 751.665C532.35 749.615 532.4 747.974 532.6 747.972C533.5 747.972 534.15 752.384 534.3 759.002C534.5 768.904 534.45 768.545 535.5 766.237C536.2 764.646 536.35 763.415 536.15 760.49C535.9 756.13 536.6 755.36 537.4 759.105L537.95 761.568L537.85 759.105C537.8 757.772 537.9 756.695 538.1 756.694C538.5 756.694 539.3 759.515 539.8 762.747C540 763.927 540.3 764.903 540.5 764.903C540.75 764.903 541.15 763.825 541.45 762.491C542.1 759.721 541.6 755.668 540.3 752.487C539.4 750.332 539.3 749.511 539.95 749.511C540.151 749.512 541 750.948 541.8 752.692C543.15 755.77 543.25 756.284 543.15 762.184C543.1 766.389 543.25 768.493 543.6 768.494C543.95 768.494 544.05 765.929 543.9 760.49L543.7 752.537L545.45 756.027C547.05 759.156 547.25 759.362 547.4 758.079C547.5 757.31 547.05 755.667 546.45 754.436C545.85 753.205 545.45 751.922 545.6 751.563C545.7 751.204 546.2 751.871 546.7 753.051C547.25 754.179 547.849 755.153 548.1 755.155C548.75 755.155 548.55 751.204 547.75 747.202C546.8 742.585 546.75 741.507 547.65 742.277C548.05 742.585 548.75 743.714 549.3 744.74C549.8 745.817 550.65 747.252 551.1 747.868C551.6 748.535 552.6 751.102 553.35 753.513C554.65 757.771 554.75 757.873 554.9 755.975C555 754.846 554.8 752.896 554.5 751.665C554.2 750.434 554.1 749.254 554.2 749.1C554.601 748.744 557.301 754.95 558.65 759.259C559.25 761.208 559.899 762.849 560.05 762.851C560.45 762.851 559.65 756.898 558.8 753.769C558.35 752.025 558.25 750.948 558.6 750.742C559.2 750.332 559.2 750.383 561 753.666C562.4 756.232 562.5 756.334 562.5 754.898C562.5 754.025 561.85 751.922 561 750.126C560.2 748.382 559.75 746.946 560 746.946C560.3 746.946 561.5 748.382 562.75 750.126C564 751.922 565.5 753.924 566.05 754.642L567.05 755.924L566.7 753.871C566.55 752.743 566.6 751.974 566.8 752.179C567.55 752.949 570.049 759.566 570.35 761.568C570.9 765.262 571.45 765.364 571.5 761.67C571.5 758.489 572 757.31 572.7 758.849C572.85 759.207 572.85 758.694 572.7 757.72C572.55 756.745 571.55 754.128 570.5 751.922C569.4 749.767 568.75 747.972 568.95 747.972C569.2 747.972 570.15 748.844 571.05 749.869C571.949 750.946 572.849 751.768 573.05 751.717C573.5 751.563 574.75 755.36 575.5 759.002C576.3 763.003 577.2 765.928 577.55 765.929C578.75 765.929 578.2 759.054 576.7 754.898L576.35 753.871L577.3 754.898C577.85 755.462 578.65 756.488 579.15 757.206C579.75 758.079 580 758.181 580 757.668C580 756.488 578.1 751.049 577.25 749.664C576.85 749.049 576.5 748.228 576.5 747.868C576.501 747.101 578.851 750.487 581.75 755.411C584.85 760.644 584.75 760.542 584.9 758.951C585 757.412 580.25 749.716 577.85 747.663C576.75 746.689 576.6 746.432 577.3 746.432C578.55 746.432 582.35 750.845 584.05 754.231C585.6 757.309 586.35 758.181 585.45 755.872C584.8 753.974 585.2 753.82 586.45 755.462C587.05 756.231 587.649 756.693 587.85 756.489C588.35 755.975 586.75 749.87 585.25 746.586C584.6 745.098 584.2 743.867 584.4 743.867C584.602 743.869 586.401 745.459 588.35 747.458C590.35 749.408 592.05 751.05 592.15 751.05C592.25 751.048 592.249 750.331 592.1 749.511C591.8 747.459 592.3 747.561 593.45 749.869L594.4 751.82L594.95 749.614C595.8 746.381 595.15 744.996 591.2 741.917L589.75 740.788L591.25 741.096C592.9 741.455 598.799 744.687 599.3 745.457C599.45 745.714 600.1 745.919 600.8 745.919C601.7 745.919 602 745.663 602 744.842C602 743.354 599.3 740.84 595.85 739.096C592.05 737.198 591.65 736.428 594.8 736.941C597.45 737.351 601.6 739.25 603.4 740.943C604.85 742.328 604.8 741.866 602.95 738.12C602.1 736.427 600.25 733.863 598.85 732.426C595.8 729.399 596 729.45 604.4 732.939C607.5 734.221 610.15 735.144 610.3 734.99C610.749 734.58 609.15 731.399 607.65 729.706C606.9 728.834 605.15 727.295 603.75 726.371C602.05 725.192 601.5 724.576 602.1 724.473C603.45 724.216 607.95 726.833 610.7 729.501C613.9 732.579 615.4 733.4 615.8 732.426C615.95 732.016 615.75 730.887 615.35 729.963C614.4 727.552 610.35 721.241 609.05 720.061C607.45 718.573 607.8 718.008 609.55 719.342C610.35 720.009 611.55 721.292 612.15 722.267C613.9 725.19 618.197 730.217 618.35 729.656C618.55 729.091 617.2 725.91 616.55 725.397C616.35 725.243 615.65 724.319 615 723.344C614.4 722.369 612.95 720.573 611.8 719.342C607.65 714.879 612.9 718.112 617.8 723.088C619.3 724.576 620.5 725.602 620.5 725.345C620.499 724.318 618.299 720.471 616.85 718.881C616 717.958 615.45 717.085 615.6 716.931C616.15 716.367 619.75 718.265 621.65 720.163C622.65 721.189 623.499 721.805 623.5 721.549C623.5 720.677 621.85 718.47 619.15 715.494C617.05 713.237 616.05 712.57 614 712.057C612.55 711.698 610.8 710.877 610.1 710.158L608.75 708.927L610.75 710.005C612.7 711.031 614 711.339 614 710.723C614 710.569 613.599 709.799 613.1 709.081C611.15 706.208 611.4 706.26 614.95 709.441C616.95 711.236 619.2 713.699 620 714.827C621.65 717.239 626 721.6 626 720.83C626 720.522 625.5 719.753 624.9 719.086C624.25 718.419 622.85 716.469 621.75 714.827C620.65 713.186 618.45 710.364 616.85 708.569C615.2 706.773 614.05 705.182 614.2 705.028C614.802 704.414 621.499 709.799 621.5 710.928C621.5 711.595 625.4 719.239 625.75 719.24C625.85 719.24 625.7 718.521 625.45 717.7C625.2 716.828 624.8 715.443 624.5 714.52C624.25 713.648 624.15 712.775 624.25 712.621C624.8 712.108 625.5 713.494 626 716.161C626.3 717.649 626.6 718.982 626.7 719.137C627.1 719.496 628 718.675 628 717.906C628 716.829 628.85 717.034 629.15 718.214C629.5 719.702 628.7 722.318 627.65 723.088C626.85 723.704 626.9 723.909 628.05 726.576L629.3 729.449L629.95 725.551C630.3 723.396 630.8 721.138 631 720.573C631.4 719.599 631.45 719.6 631.45 720.882C631.5 723.088 632 723.96 632.8 723.293C633.35 722.831 633.5 722.934 633.5 723.806C633.5 724.37 633.3 724.884 633 724.884C632.75 724.884 632.5 725.756 632.5 726.781C632.5 730.065 633.5 727.962 633.85 724.011C634.05 721.138 633.95 720.163 633.3 719.137C632.7 718.163 632.6 717.701 633 717.445C634.35 716.572 632.2 712.57 630.35 712.57C629.799 712.569 627.85 711.03 625.9 708.979C624 707.029 621.45 704.669 620.25 703.797C619.001 702.874 618.101 702.002 618.25 701.899C618.7 701.437 626.7 707.285 627.9 708.927C628.95 710.415 632.9 712.827 633.4 712.314C633.55 712.21 632.799 710.312 631.8 708.157C630.8 706.003 630 704.002 630 703.643C630.05 702.514 632.399 705.849 633.1 708.055C633.5 709.286 634.25 711.39 634.75 712.826C635.25 714.212 635.65 716.418 635.6 717.7C635.6 719.086 635.7 719.65 635.95 719.086C636.15 718.573 636.5 718.111 636.75 718.06C636.864 718.04 636.955 717.656 637.021 716.988L641.521 727.489C642.119 728.882 643.99 729.13 644.93 727.94L653.681 716.857C694.328 669.409 708.538 627.845 715.771 565.786L716.909 553.029L716.685 553.048C717.921 547.413 719.961 538.866 722 530.946C725.4 517.606 728.05 506.01 729.6 497.596C730.6 492.106 730.7 489.746 730.85 463.067L731.05 434.489H729.35C727.25 434.49 727 435.105 727 440.441C727 448.239 724.9 463.272 722.5 472.712C720.2 481.793 716 492.824 712.55 498.878C706.5 509.652 696.45 518.734 686.7 522.275C678.8 525.199 666.8 527.765 655.75 528.945C647.8 529.765 630.6 529.611 621.5 528.636C603.75 526.738 594.95 524.275 585.25 518.375C576.25 512.937 571.15 507.396 562.85 494.108C550.65 474.611 542.55 451.317 539.75 427.973C538.45 416.891 536.4 414.736 525.15 412.736C522.35 412.223 518.05 411.965 513.25 411.965ZM289.65 499.289C288.8 498.981 287 507.755 287 512.065C287 514.168 287.25 516.681 287.55 517.656C288.5 520.53 295.6 531.048 296.15 530.432C296.347 530.212 293.298 514.316 290.85 502.778C290.5 500.932 289.95 499.393 289.65 499.289ZM740.2 501.65C739.35 499.033 738.75 498.519 738.3 500.007C736.55 506.317 731.851 529.915 732.25 530.329C732.55 530.688 734.1 528.739 736.7 524.788C739.6 520.325 741.3 516.784 741.7 514.219C742.15 511.705 741.35 505.292 740.2 501.65ZM409 379.078C398.3 378.514 379 378.513 371.75 379.129C345.2 381.335 328.9 386.312 319.8 395.034C315.4 399.293 312.1 404.577 310.1 410.888C308.05 417.199 307.45 421.611 307.15 432.694C306.5 456.756 310.5 475.893 319.85 494.004C327.6 508.986 336.5 515.553 355.2 520.119C379.35 526.02 417.2 524.327 433.7 516.631C441.25 513.142 448.95 506.78 454.1 499.802C457.7 494.928 463.25 485.744 465.95 480.254C468.55 474.867 472 466.709 472 465.837C472 465.581 471.249 465.119 470.35 464.811C468.05 464.041 466 461.681 465.65 459.527C465.25 456.807 466.7 453.062 469.5 449.573C470.85 447.932 472.85 445.006 473.95 443.159C475.45 440.646 476.5 439.466 478.2 438.594C479.45 437.876 480.55 436.9 480.75 436.284C480.9 435.719 481.3 432.333 481.6 428.742C483.45 408.477 477.15 395.599 462.1 389.083C449.45 383.645 431.9 380.31 409 379.078ZM638.75 378.822C618.75 378.719 618.05 378.719 606.75 379.899C577.95 382.772 559.85 389.083 552.55 398.729C546.75 406.527 544.65 417.558 546.45 431.41C547.2 437.054 547.5 437.772 549.5 438.85C551.35 439.825 552.75 441.364 553.75 443.519C554.2 444.494 555.65 446.546 557 448.137C560.1 451.728 561.6 454.96 561.9 458.295C562.15 461.527 561.05 463.22 558.05 464.246C556.6 464.708 556 465.221 556 465.94C556 468.864 564.45 486.052 570.15 494.723C579.4 508.832 589 515.912 604.25 519.863C615.65 522.787 622.4 523.506 639.25 523.454C651.45 523.454 655.95 523.301 660.5 522.582C673.7 520.53 682.6 517.964 689.5 514.219C693.95 511.859 702.05 504.06 705.2 499.238C712.05 488.617 717.25 472.969 719.8 455.012C721.05 446.649 721.05 426.896 719.85 420.123C717.6 407.605 713.2 398.831 706.3 393.136C698.35 386.569 684.7 382.259 663.75 379.796C658.8 379.18 651.5 378.924 638.75 378.822ZM479.25 213.409C479 213.461 477.3 213.666 475.5 213.871C471.45 214.333 469.55 214.846 460.5 217.976C449.55 221.772 442.55 223.106 431.7 223.465C422.45 223.773 416 223.261 409.55 221.773C407.8 221.362 406.25 221.157 406.1 221.311C405.753 221.671 412.951 225.005 416.65 226.185C425.05 228.801 435.25 229.263 448.5 227.467C449.45 227.364 448.45 227.827 446.25 228.545C444.05 229.263 441.8 230.033 441.25 230.289C438.35 231.521 430.3 232.547 423.25 232.547C415.15 232.547 409.4 231.469 401.75 228.493C395.5 226.133 387.1 221.157 384.7 218.438C384.2 217.873 382.9 216.693 381.9 215.872L380.1 214.384L376.4 217.206C369.7 222.439 357.15 228.185 344.9 231.572L342.1 232.342L339.6 237.114C337.25 241.629 332.75 249.53 320.2 271.078C314.35 281.134 312.95 284.007 315 281.596C319.3 276.568 322.7 273.387 323.2 273.951C323.348 274.058 322.049 277.391 320.45 281.339C318.8 285.289 316.7 290.676 315.75 293.293L314.1 298.065L317.25 294.576C319.9 291.703 320.45 291.293 320.5 292.216C320.5 292.832 320 294.576 319.45 296.064C317.45 301.143 314.55 310.327 314.95 310.327C315.15 310.327 315.55 309.814 315.85 309.148C316.15 308.532 317.45 306.531 318.8 304.684C321.75 300.733 322.2 301.451 319.95 306.53C318.35 310.224 314.002 321.713 314 322.384C314 322.538 315.3 321.204 316.85 319.358C320.1 315.51 322 313.919 322 315.151C321.999 315.562 321.2 317.819 320.2 320.178C317.85 325.822 314.4 334.39 311.7 341.367C310.5 344.445 309.3 347.472 309 348.037C306.9 352.604 303.45 362.814 302.25 368.047C299.9 378.36 299.25 384.568 298.7 402.781L298.35 413.966H300.55C302.75 413.966 302.8 413.915 303.35 411.76C305.35 404.116 310.55 394.881 315.3 390.417C323.1 383.08 330.4 379.796 346.25 376.461C353.9 374.871 366.8 373.691 385.1 372.973C395.65 372.511 396.5 372.408 397.5 371.382L398.55 370.305L436.4 370.715C484.55 371.228 551.1 371.228 594.75 370.715L628.75 370.305L630.1 371.536C631.45 372.716 631.75 372.768 643.6 373.075C684.699 374.204 704.8 380.001 716 394.111C718.95 397.753 722.95 405.757 724.3 410.631L725.25 413.966H730.65L730.3 406.476C729.7 392.315 728.1 382.002 724.5 369.329C720.7 355.836 720.6 355.528 711.75 336.083C710.4 333.21 709.5 330.696 709.65 330.542C709.801 330.337 710.9 331.055 712.05 332.081C713.199 333.107 714.249 333.825 714.35 333.723C714.55 333.518 710.45 322.949 709.2 320.537C707.8 317.767 707.45 316.381 708.2 316.843C709.25 317.51 711.75 320.692 713.2 323.257C714 324.642 714.65 325.719 714.75 325.719C715.4 325.719 712.75 317.664 710.25 312.226C708.4 308.121 708.15 306.48 709.8 309.148C710.3 309.917 710.95 310.737 711.2 310.943C711.45 311.097 712.4 312.842 713.35 314.791C715.95 320.332 714.65 316.074 711.15 307.557C707.65 299.091 705.65 294.884 704.85 294.371C704.599 294.166 703.5 293.858 702.5 293.704C696.35 292.729 681.45 285.29 676.4 280.775C673.45 278.107 672.75 277.851 670.9 278.825C667.75 280.519 659.2 283.135 652.75 284.469C644.7 286.111 632.15 286.675 624.7 285.751C615.55 284.622 603.4 280.98 592.5 276.157C585.5 273.079 572.15 264.819 563.25 258.098C554.6 251.582 550.95 248.4 542.05 239.832L539.35 237.216L541.55 241.321C544.75 247.477 549.8 254.711 553.9 259.072C557.451 262.921 567.4 271.334 568.4 271.334C568.651 271.335 569.4 271.746 570.05 272.31C574 275.439 583.95 279.697 592.95 282.109C594.099 282.416 594.998 282.775 594.9 282.878C594.5 283.34 581.15 281.596 576.95 280.621C563.95 277.492 548.15 267.692 539.5 257.431C538 255.636 536.501 253.891 536.2 253.634C535.9 253.326 532.15 248.605 527.9 243.115C518.9 231.52 511.9 223.978 508 221.721C501.75 218.078 491.85 214.846 484.25 213.922C481.8 213.614 479.55 213.409 479.25 213.409ZM514.1 377.026C477.78 377.026 448.05 377.128 448 377.231C448 377.385 451.2 378.514 455.1 379.848C473.75 386.005 482 393.136 485.75 406.373C486.2 408.015 486.6 409.349 486.7 409.349C486.754 409.347 488.602 408.68 490.8 407.861C497.25 405.449 504.75 404.577 516.65 404.885C526.9 405.142 533.2 406.065 537.75 408.015C538.8 408.477 539.9 408.836 540.25 408.836C540.6 408.836 541.5 407.091 542.25 404.937C544.8 397.703 550.05 390.981 556 387.236C561.2 383.952 563.75 382.772 571.75 380.104C576.15 378.667 579.85 377.385 579.95 377.231C579.995 377.128 550.416 377.026 514.1 377.026ZM306.45 262.869C307.45 261.792 299.9 265.486 294.6 268.615C287.4 272.874 284.15 275.439 279.5 280.364C272.05 288.317 265.4 300.836 261.75 313.867C260.35 318.69 260.4 319.87 261.75 316.125C264.9 307.454 272.1 294.627 278.05 287.188C283.7 280.056 293.1 271.796 302.95 265.229C304.75 264.049 306.3 262.972 306.45 262.869ZM752.95 207.201C752.9 201.149 752.35 196.224 751.9 196.735C751.65 196.94 751.5 198.531 751.5 200.224C751.45 207.253 749.05 220.028 746.55 226.595C744.75 231.212 741.3 238.293 739.1 241.781C734.95 248.451 725.9 256.917 718.7 260.817C715.75 262.458 716.75 262.458 723.75 260.817C733.15 258.611 742.549 254.968 747.35 251.633C751.05 249.016 750.55 250.299 745.35 256.866C737.2 267.127 726.35 272.514 712.3 273.233C706.8 273.54 706.4 273.643 707.8 274.207C710.5 275.336 720 276.567 723.5 276.208C735.6 275.028 746.05 269.795 754.6 260.662C757.95 257.071 763 250.504 763 249.683C762.997 249.583 761.599 250.864 759.9 252.453C756.901 255.378 748.951 261.278 747.15 261.946C746.55 262.151 746.7 261.74 747.8 260.509C753.4 254.198 760.4 242.603 764.25 233.367C766.15 228.75 766.1 228.648 763.55 232.342C758.55 239.576 751.6 245.476 744.5 248.503C740.302 250.349 735.904 251.888 735.65 251.633C735.55 251.53 736.9 249.683 738.7 247.529C743.1 242.244 744.75 239.678 747 234.753C751 225.826 753.05 216.385 752.95 207.201ZM311.7 242.193C312.55 240.653 311 241.988 308.05 245.22C302.65 251.171 293.95 257.02 285.75 260.252C277.45 263.536 272.8 264.613 263.3 265.486C257.45 265.999 259.65 266.717 268.15 267.076C276.35 267.435 281.1 266.665 287.75 263.997C296.9 260.303 306.2 251.889 311.7 242.193ZM735.25 178.008C733.35 173.698 731 169.183 731 169.902C731 170.107 731.7 172.775 732.5 175.853C736.4 190.167 735.4 204.431 729.6 218.489C724.9 229.827 715.3 239.987 703.5 246.092C697.35 249.324 698.95 249.375 706.55 246.195C716.25 242.193 721.15 239.319 725.65 235.061C734.55 226.544 738.5 219.002 740 207.612C741.15 199.249 739.15 186.833 735.25 178.008ZM588.75 231.111C582.2 228.597 582.15 228.596 582.75 229.16C584.2 230.546 597.599 237.575 602.35 239.422C612.7 243.527 622.3 245.271 633.75 245.271C646.85 245.219 656.2 243.321 669.05 237.986C674.549 235.728 681.199 232.342 682.8 231.008C683.95 230.033 684.15 229.981 677.25 232.7C663.25 238.293 647.95 240.858 631.5 240.397C617.05 239.986 605.8 237.524 588.75 231.111ZM255.85 196.94C253.75 193.298 254.301 195.093 256.65 199.608C259.35 204.841 262.95 209.356 268.05 213.769C273.45 218.54 283.15 224.389 287.25 225.466C292.2 226.749 279.35 227.16 272 225.98C263.7 224.646 255.25 220.695 245.75 213.717C244.5 212.794 245.1 213.512 247.25 215.615C260.6 228.545 278.65 235.574 294 233.829C302.5 232.855 302.9 232.65 297.5 231.88C294.9 231.521 290.5 230.649 287.8 229.982C285.1 229.315 282.7 228.75 282.55 228.698C282.4 228.698 282.7 228.494 283.25 228.238C283.8 227.981 286.6 227.776 289.5 227.776C294.25 227.724 308.249 226.082 308.85 225.466C308.949 225.363 307.55 225.107 305.65 224.953C299 224.338 292.55 223.106 288.45 221.618C276.8 217.514 265.8 210.228 259.8 202.635C258.35 200.737 256.55 198.222 255.85 196.94ZM713.9 173.031C713.8 172.929 712.95 174.519 712.1 176.572C707.4 187.294 695.5 198.582 682.25 204.893C671.85 209.818 664.2 212.127 653 213.666C640.6 215.308 621.7 213.871 610 210.28C607.7 209.613 607.6 209.613 608.9 210.588C612.451 213.153 626.15 217.668 635.25 219.31C642.75 220.644 654.65 220.541 661.75 219.053C664.8 218.386 667.95 217.565 668.75 217.257C669.6 216.898 670.95 216.437 671.75 216.232C673.2 215.873 673.15 215.924 671.2 217.411C663.95 222.952 649.95 227.672 635.75 229.365C630.3 229.981 630.3 230.033 633 230.341C640.3 231.265 652.8 230.648 661 228.904C676.9 225.62 690.4 218.95 701.25 209.048C706.7 204.072 707.4 203.354 710.75 199.249C715.45 193.503 715.5 193.4 710.95 197.761C706.4 202.173 701.45 206.124 696 209.613C692.35 211.921 685.5 215.564 685.25 215.308C685.15 215.205 687.2 213.409 689.85 211.306C700.8 202.532 708.9 190.68 712.75 177.751C713.499 175.29 714 173.188 713.9 173.031ZM284.2 127.163C284.15 127.163 283.8 128.498 283.35 130.088C281.15 138.348 279.7 151.944 280.25 159.23C281 169.748 284.1 183.241 287.3 190.014L288.55 192.579L286.8 190.629C284.15 187.602 280.55 181.804 277.95 176.417C274.85 170.055 273.15 163.437 271.85 152.817C271.75 152.098 271.5 153.124 271.25 155.125C270.4 162.513 272.6 174.417 276.55 183.806C283.2 199.659 298.7 212.691 316.1 216.949C321.05 218.181 322.5 218.232 319.75 217.104C314.7 215.051 309.7 211.46 304.75 206.432C297.35 198.839 292.85 191.553 289.7 181.856C287.2 174.365 287.2 174.365 292.2 182.113C296.05 188.115 304.65 196.787 311 201.148C318.65 206.33 323.45 208.432 333.65 211.049C340.25 212.742 341.7 212.486 336.2 210.588C319 204.739 300.95 188.167 292.5 170.518C286.45 157.794 284.3 148.763 284.25 135.782C284.25 131.018 284.2 127.174 284.2 127.163ZM635.6 143.324C631.099 142.401 621.65 142.401 616.5 143.324C600.85 146.249 591.45 151.791 570.5 170.261C567.35 173.031 563.75 176.109 562.5 177.084C559.55 179.342 552.1 184.626 551.75 184.626C551.65 184.626 550.35 185.397 548.9 186.371C539.35 192.579 525.1 197.402 511 199.197C510.05 199.3 512.65 199.351 516.75 199.197C530.05 198.838 542.1 195.657 554.4 189.295C558.75 187.038 565.35 182.317 578.05 172.518C589.7 163.488 593.55 160.923 600.95 157.075C612.65 151.073 621.7 148.917 633.65 149.379C645.8 149.79 656.15 153.638 666 161.385C667 162.206 666.4 161.282 664.5 159.281C656.9 151.175 647.2 145.787 635.6 143.324ZM535.9 71.1369C535.8 70.6239 535.2 71.9061 534.55 73.9582C533.9 75.9591 532.6 79.2429 531.7 81.1926C530.75 83.0908 530 84.8865 530 85.1946C530 85.451 529.75 85.9126 529.5 86.2717C529.2 86.6309 528.05 88.3759 526.85 90.2229C524.55 93.8653 523.9 94.7376 520.3 98.842C514.2 105.871 506.3 112.9 499.5 117.415C488.75 124.496 472.15 132.243 452.8 139.272C417.7 152.047 399.7 167.388 391.2 191.81C389.2 197.556 389.05 199.402 390.9 195.401C399.4 177.29 415.45 164.104 439.75 155.228C453.25 150.302 468.8 146.198 461.4 149.482C458.85 150.61 448.6 156.459 445.75 158.358C439.75 162.411 430.05 171.133 426.35 175.802C423.4 179.547 418.5 186.833 418.5 187.551C418.5 187.808 417.95 188.834 417.25 189.86C415.2 192.989 415.85 192.63 418.5 189.142C430.3 173.955 445.85 163.898 469.5 156.202C472.65 155.176 475.7 154.1 476.25 153.843C476.8 153.586 479.15 152.765 481.5 151.995C505.65 143.992 523.3 135.321 536 125.162C543.7 119.006 547.5 115.004 552.9 107.205C555.1 104.076 555.9 102.28 554.15 104.588C545.7 115.362 533.45 124.085 515.75 131.73C507.7 135.219 496.15 139.528 493 140.246C491.5 140.554 491.7 140.349 494.25 138.964C500.95 135.27 508.9 129.524 515 123.88C520.2 119.057 529.05 107.974 532.6 101.715C533.6 99.9708 534.8 97.8677 535.3 97.0979C536.7 94.8404 535.85 95.7642 533.2 99.4582C529.2 105.102 526 108.591 520.9 112.901C514.85 118.031 509.4 121.982 504.5 124.752C500.05 127.317 489.45 132.396 489.2 132.14C489.05 132.037 491.55 130.191 494.6 128.087C502.15 122.957 505.75 119.929 511.95 113.67C522.7 102.793 530.05 90.941 534.25 77.55C535.25 74.5238 535.95 71.5999 535.9 71.1369ZM375.3 60.9778C374.048 60.9795 359.001 76.4716 359 77.7551C359 78.1142 358.8 78.4221 358.55 78.4221C358.299 78.4228 357.25 79.7568 356.2 81.3469C355.2 82.9887 353.25 86.0154 351.9 88.0676C350.6 90.1199 349.5 91.9162 349.5 92.0188C349.498 92.1759 348.499 94.4316 347.3 97.0461C344.7 102.536 342.35 109.668 341.25 115.26C340.85 117.415 340.35 119.775 340.15 120.493L339.85 121.777L339.5 120.493C338.5 117.107 339.35 102.947 341 95.4563C341.55 92.9936 342.75 88.5805 343.7 85.6047C344.65 82.6806 345.4 80.2183 345.35 80.1155C345.197 79.9652 340.9 85.6057 340.2 86.8879C339.9 87.4524 338.95 89.0432 338.1 90.4797C333.1 98.5861 328.3 111.361 326.75 120.493C326.3 123.161 325.8 129.267 325.65 134.09C325.35 142.349 325.3 142.709 324.65 140.76C319.65 125.984 319.25 107.565 323.55 92.5832C324.399 89.5591 324.999 86.9952 324.9 86.8879C324.65 86.6314 320 98.4322 320 99.3557C320 99.7149 319.8 100.382 319.55 100.895C318.85 102.23 317.5 108.796 316.9 113.721C316.25 119.416 316.65 132.243 317.75 137.938C319.95 149.687 326.2 163.848 333.45 173.596C337.2 178.675 345.45 187.038 350.8 191.245C357.6 196.632 357.85 196.684 353.45 192.015C338.2 175.853 330.3 154.304 331.15 131.268C331.4 124.085 332.7 114.85 333.5 114.85C333.7 114.85 334 117.21 334.15 120.083C334.8 131.473 339.05 145.172 345.1 155.28C347.1 158.666 352 165.54 352 164.976C351.999 164.819 351.299 162.922 350.5 160.769C348.3 155.176 346.2 146.352 345.2 138.4C343.35 123.367 345.5 110.027 352.3 94.6867C357.3 83.2967 363.1 74.4199 371 65.9543C373.55 63.2352 375.5 60.9778 375.3 60.9778ZM606.85 83.553C606.75 82.2705 606.65 81.6034 606.6 82.0647C606.35 84.3735 603.2 93.0444 601 97.508C596.2 107.256 588.45 117.62 579.45 126.394C574.5 131.217 563.65 140.041 559.55 142.607C557.75 143.735 554.9 145.531 553.2 146.609C543.2 152.971 528 159.538 516.1 162.565C513.55 163.232 511.6 163.848 511.7 163.95C512.504 164.821 531.701 160.153 540.75 156.921C550.8 153.278 566.3 144.916 574.05 138.964C575.499 137.836 576.8 137.066 576.95 137.219C577.85 138.143 561 153.074 553 158.409C550.4 160.102 548.05 161.744 547.75 161.949C547.198 162.412 539.9 166.464 536.75 168.106C533.7 169.696 530.8 170.928 524.75 173.339C521.75 174.519 518.8 175.699 518.25 175.905C514 177.649 500.5 181.19 494.75 182.062C489.75 182.831 487.9 183.498 490.75 183.549C496.95 183.6 511.35 182.471 518.25 181.291C534.8 178.572 550.75 173.545 560.95 167.85C562.2 167.132 564.7 165.746 566.5 164.72C570.95 162.257 581.15 155.228 584.5 152.355C588.95 148.558 596.85 141.118 602.25 135.68C616.4 121.314 625.85 114.029 636.85 109.052C643 106.23 653.75 104.332 660.75 104.845C663.7 105.05 664 104.999 662.75 104.537C661.95 104.229 658.1 103.922 654.25 103.87C647.85 103.819 646.7 103.973 640.85 105.512C625.85 109.463 617.85 114.645 597.55 133.269C590.1 140.041 582.9 146.044 577.8 149.532C573.2 152.765 571.85 153.124 575.05 150.406C584.5 142.196 592.45 131.422 598 119.262C601.9 110.745 605.35 98.8932 606.5 90.1711C606.8 87.7598 607 84.7843 606.85 83.553ZM520.45 71.5471C520.2 71.3419 516.45 76.1135 515.75 77.4475C515.5 78.0118 515.15 78.4221 515 78.4221C514.85 78.4222 513.15 79.9618 511.25 81.8088C504.7 88.1707 496.9 93.609 487.15 98.6369C483.7 100.381 471.15 105.615 468.5 106.333C467.8 106.538 466.8 106.898 466.25 107.103C465.7 107.359 461.699 108.744 457.35 110.181C447.05 113.567 443.85 114.85 437.55 118.082C422.45 125.778 411 135.937 402.5 149.225C399.1 154.612 395.3 162 395.7 162.462C395.85 162.616 396 162.513 396 162.205C396.002 161.28 402.651 151.277 405.45 147.943C418.15 132.807 433.05 123.777 460.25 114.696C481.65 107.564 494.85 100.381 506.4 89.6067C511.7 84.6301 515.75 79.7561 518.8 74.677C519.799 73.0364 520.499 71.6004 520.45 71.5471ZM498.65 29.6809C502.6 28.7062 501.899 28.6033 495.6 29.219C476.7 31.0661 451.65 39.8402 436.45 49.9475C434.55 51.1788 433 52.0501 433 51.8449C433.002 51.3814 436.101 48.0478 439.55 44.8166C443.4 41.2252 448.1 37.4794 452.6 34.5549C454.75 33.221 456.4 31.9896 456.3 31.8869C456.196 31.786 453.548 32.7605 450.45 34.0422C436.65 39.8398 424 48.1001 413.85 57.8996C408.5 63.0304 399.85 73.189 397.05 77.6526C393.7 82.9885 388.45 93.9169 386.35 99.8684C384.05 106.435 384 107.666 386.15 102.485C389.35 95.0452 395.7 83.9631 399.95 78.4221C406.6 69.7513 418.95 57.3869 420.9 57.3869C421.201 57.3864 422.101 56.7709 422.95 56.053C424.9 54.4111 424.95 54.7696 423.1 56.9758C418.25 62.7734 413.35 70.4182 410.5 76.6262C408.75 80.5255 405.5 88.8889 405.5 89.5559C405.501 89.7598 406.3 88.4774 407.3 86.6311C411.85 78.2681 419.1 69.4434 426.2 63.6457C431.9 58.9771 432.55 58.8745 428.9 63.0813C423.9 68.9815 419.15 77.5499 415.4 87.4006C412.4 95.1991 412 96.7385 410.3 108.026C410.05 109.975 410.95 108.796 411.3 106.743C412.3 101.048 418.4 87.5548 423.25 80.218C430.75 68.828 439.35 60.003 451.25 51.4348C463.45 42.6614 482.95 33.6828 498.65 29.6809ZM595.6 47.0227C603 45.073 602.65 44.7143 594.5 45.843C588.8 46.6639 584.9 47.6379 579.35 49.7414C571.7 52.6146 567.25 55.7452 562.7 61.3889C559.75 65.0827 558.9 67.5964 561.75 64.1594C565.2 60.0549 572.75 55.7443 579.75 53.8459C581.9 53.2303 593.5 53.1795 595.4 53.6926C596.4 54.0004 596.15 54.2567 593.25 55.7444C584.05 60.5672 575.55 67.9048 570.3 75.6008C569 77.5503 567.8 79.3975 567.7 79.7053C567.552 79.9602 569.851 77.8568 572.75 74.9846C575.65 72.1114 579.55 68.674 581.4 67.3401C589.05 61.8503 598.75 57.5915 608.25 55.5393C614.3 54.2053 628.4 54.2053 634.2 55.5393C636.35 56.001 638.25 56.2576 638.4 56.1037C638.55 55.9501 638.55 55.8471 638.4 55.8469C638.25 55.8469 635.9 55.1287 633.2 54.3078C624.05 51.3834 619.8 50.7682 604.55 50.1526C596.702 49.8448 589.903 49.434 589.4 49.2287C588.8 49.0235 590.95 48.254 595.6 47.0227Z" fill="black"/>
<path d="M265.5 521.761C265.502 521.611 266.702 523.611 268.15 526.277C270.15 530.022 271.85 532.228 275.8 536.281C280.449 541.001 280.95 541.719 281.45 544.182C281.75 545.67 282 547.979 282 549.262V551.621L278.35 546.542C273.05 539.154 271.2 536.384 269.8 533.357C268.6 530.894 265.5 522.479 265.5 521.761Z" fill="black"/>
<path d="M763.4 521.453C763.8 521.814 761.35 528.688 759.7 531.971C757.95 535.357 756.45 537.718 750.25 546.594C747.3 550.852 746.7 551.416 746.6 550.39C746.35 548.901 747.45 541.822 748.05 540.642C748.3 540.18 749.95 538.59 751.75 537.154C755.65 533.973 758.85 529.919 761.35 524.943C762.4 522.942 763.3 521.351 763.4 521.453Z" fill="black"/>
</svg>
